<svg id="Layer_1" data-name="Layer 1" xmlns="http://www.w3.org/2000/svg" viewBox="0 0 220.41 259"><defs><style>.cls-1{fill:#ed1c24}</style></defs><path class="cls-1" d="M120.81 15.8c-5.6 12.1-8.1 15.9-10 16.3-1.4.2-7.5 1.1-13.7 1.8-46.1 5.1-83.2 38.2-95 84.5-2.1 8.4-2.3 12.2-2 29.8.5 18.1.8 21.1 3.8 30 3.6 10.8 9.6 23.4 13.2 28l2.3 2.9 4.8-8.7 4.8-8.7-2.9-5.5c-1.5-3-4.1-10.2-5.7-15.8-3.9-13.4-4.1-35.1-.6-49.2 8-31.7 34.2-58.5 65.7-67.2 7.6-2.1 18.8-3.3 18.8-2 0 .2-22.6 46.5-50.2 102.8L3.91 257.3l4.1.8c2.3.5 11.6.8 20.6.8l16.4.1 16.3-37c9-20.3 16.8-37.2 17.1-37.4.5-.2 12.1-.6 25.9-.6l25.1-.2.6 7 .6 7 17.8-13.7c9.8-7.5 17.9-14 17.9-14.3 0-.5-7.7-8.1-17.2-17l-17.4-16.3-.4 6.7-.4 6.8h-38.4l1.2-2.9c4-10.4 35.5-84.6 36.5-85.5.6-.7 1.1 12 1.2 32.2v33.3l14.9 13.7 14.9 13.7.6-42.9c.5-31.9.9-43 2-43.4 2.3-.8 20.5 18.5 25.9 27.7 2.8 4.7 6.7 13.4 8.8 19.3 3.6 10.3 3.8 11.4 3.8 29.4 0 16.5-.4 19.7-2.7 27-8.8 26.5-25.7 46.2-48.9 57.4-16.1 7.9-23.1 9.4-41.6 9.3-15-.1-16.4-.4-27.6-4.2-6.4-2.2-12.7-4.6-13.8-5-1.6-.7-2.6.5-5.5 6.9-2 4.2-3.5 8-3.5 8.2 0 .8 17.2 7.3 25.8 9.6 6 1.8 11.6 2.1 26.4 2.1 16.9-.1 19.8-.5 29.2-3.3 29.9-9 54.4-29.2 68-55.8 10.2-19.8 12.9-32.9 12.2-57.1-.6-14.8-1.1-18.9-3.9-27.3-8.4-26.3-25.6-49.2-45.6-61.6l-7.6-4.7-.1-23.2V0h-34.6l-7.7 15.8Z"/><path class="cls-1" d="m146.01 195.1-15.2 13 15 .4c8.3.1 15.4.1 15.6-.1.2-.4.2-6.3.1-13.4l-.4-13-15.1 13.1Z"/></svg>