<svg id="Layer_1" data-name="Layer 1" xmlns="http://www.w3.org/2000/svg" viewBox="0 0 2321.6 1440.4"><defs><style>.cls-2{fill-rule:evenodd}</style></defs><path class="cls-2" d="M1160.8 0c639.3 0 1160.8 323.6 1160.8 720.4s-521.5 720-1160.8 720S0 1116.8 0 720.4C0 323.6 521.5 0 1160.8 0Z"/><path d="M1160.8 62.3c605.1 0 1098.6 295.6 1098.6 658.1S1765.9 1378 1160.8 1378 62.4 1082.4 62.4 720.4C62.4 358 555.9 62.3 1160.8 62.3Z" style="fill-rule:evenodd;fill:#fff22d"/><path class="cls-2" d="M1166.8 1311.9c-64.2-304.2-264.1-417.8-335.4-180.1-153.3-297.8-492.3-209.3-285.9 81.6-39-16.8-76.2-34.8-110.7-54.4-112.1-69-197.9-146.7-256.5-228.1-42-65.8-64.8-136.7-64.8-210.5 0-256.5 273.9-476.7 659.7-566.7 5.8-1 11.8-2 17.8-3C497.1 540.3 912.7 812 988.9 470.3l32.8-316 66 84.6h161.7l65.8-84.6 33 316c75.8 340.8 489.6 71.4 199.9-316.8 386.2 90.2 660 310.4 660 566.9 0 196.3-160.9 371.6-410 483.3 192.5-283-140.9-366.6-292.5-72-71.3-237.6-274.2-121.1-338.8 180.2Z"/></svg>