<svg data-name="Layer 1" xmlns="http://www.w3.org/2000/svg" viewBox="0 0 2147.3 1718.1"><path d="m760.9 879-101.3 837.2 110.1 1.9 18.1-131 131.5-.9 15.3 131.9H1054l-106.4-839H760.9v-.1Zm40 588.1 53.9-430.7 53.9 430.7H800.9ZM640.2 879h-270c-9.3 0-16.3 7.4-16.3 16.3v804.6c0 8.8 7.4 16.3 16.3 16.3h259.7c8.8 0 16.3-7.4 16.3-16.3v-80.4c0-8.8-7.4-16.3-16.3-16.3H480.3c-8.8 0-16.3-7.4-16.3-16.3l-1.9-248.5c0-8.8 7.4-16.3 16.3-16.3H589c7 0 13-4.6 15.3-11.1l26.9-82.2c3.7-10.7-4.2-21.4-15.3-21.4H479.4c-8.8 0-16.3-7.4-16.3-16.3l-.9-177.9c0-8.8 7.4-16.3 16.3-16.3h161.7c8.8 0 16.3-7.4 16.3-16.3v-85.5c-.1-8.7-7.5-16.1-16.3-16.1Zm-224-40.4H596c37.6 0 67.8-30.2 67.8-67.8V19c0-9.8-7.9-18.1-18.1-18.1h-75.3c-9.8 0-18.1 7.9-18.1 18.1l1.9 684.8c0 9.8-7.9 18.1-18.1 18.1h-53.4c-9.8 0-18.1-7.9-18.1-18.1V19c0-9.8-7.9-18.1-18.1-18.1h-79c-9.8 0-18.1 8.4-19 18.6v751.2c-.1 37.7 30.1 67.9 67.7 67.9Zm288.1-476.7 190.9 129.2c3.3 2.3 5.1 6 5.1 9.8v223.5h-85.9v-126c0-3.7-1.9-7.4-5.1-9.8L720.1 525c-7.4-5.6-18.6 0-18.6 9.8l-1.9 242c-.5 33.9 26.9 61.3 60.9 61.3H950c33.4 0 60.9-27.4 60.9-60.9V433.4c0-3.7-1.9-7.4-5.1-9.8L815.3 290.8c-3.3-2.3-5.1-6-5.1-9.8V117h88.3v129.2c0 9.8 11.1 15.3 19 9.3l88.3-66c2.8-1.9 4.6-5.6 4.6-9.3V60.9C1010.4 27 983 0 949.1 0L759.5.9c-33.9 0-60.9 27.4-60.4 60.9v290.4c.1 3.7 1.9 7.4 5.2 9.7Zm346.1-245.8h53.4c8.4 0 14.9 6.5 14.9 14.9v692.2c0 8.4 6.5 14.9 14.9 14.9h83.6c8.4 0 14.9-6.5 14.9-14.9V133.8c0-8.4 6.5-14.9 14.9-14.9h53.9c8.4 0 14.9-6.5 14.9-14.9V15.8c0-8.4-6.5-14.9-14.9-14.9h-250.4c-8.4 0-14.9 7-14.9 15.3v85c-.1 8.4 6.4 14.9 14.8 14.9ZM301.5.9H69.7c-8.8 0-14.9 8.4-12.5 16.7l27.4 91.1c1.9 5.6 7 9.3 12.5 9.3h93.8c7.4 0 13 6 13 13v579.8c0 7.4-6 13-13 13h-63.2c-7.4 0-13-6-13-13V532.9c0-10.7-12.1-16.7-20.4-10.2L5.1 589.1c-3.3 2.3-5.1 6-5.1 10.2v177.5c0 35.3 28.3 63.6 63.6 63.6h187.2c35.3 0 63.6-28.3 63.6-63.6V13.9c.1-7.4-6-13-12.9-13Zm1823.4 837.2c8.8 0 16.3-7.4 16.3-16.3v-80.4c0-8.8-7.4-16.3-16.3-16.3h-159.3c-8.8 0-16.3-7.4-16.3-16.3l-1.9-248.5c0-8.8 7.4-16.3 16.3-16.3h110.6c7 0 13-4.6 15.3-11.1l26.9-82.2c3.7-10.7-4.2-21.4-15.3-21.4h-136.6c-8.8 0-16.3-7.4-16.3-16.3l-.9-177.9c0-8.8 7.4-16.3 16.3-16.3h161.7c8.8 0 16.3-7.4 16.3-16.3V17.2c0-8.8-7.4-16.3-16.3-16.3h-269.9c-8.8 0-16.3 7.4-16.7 16.3v804.6c0 8.8 7.4 16.3 16.3 16.3h269.8ZM1769.5 0h-245.3c-19 0-34.4 15.3-34.4 34.4v245.8l18.1 42.3c.5.9 1.4 1.4 2.3 1.4l76.2 1.9c2.3.5 3.3 3.3 1.4 4.6l-62.7 48.8c-.9.9-1.4 1.9-.9 2.8l22.3 82.7c.5 2.3-1.9 4.2-3.7 2.8l-49.2-32.5c-1.4-1.4-3.7 0-3.7 1.9v351.2c0 27.4 22.3 49.7 49.7 49.7h214.6c27.4 0 49.7-22.3 49.7-49.7V603c0-6-2.8-12.1-7.9-15.8l-80.4-61.8c-7-5.1-16.7 0-16.7 8.4v176.5c0 8.8-7 15.8-15.8 15.8h-66.4c-8.8 0-15.8-7-15.8-15.8v-576c0-8.8 7-15.8 15.8-15.8l61.8-.9c8.8 0 16.3 7 16.3 15.8V283c0 8.4 9.3 13.5 16.3 8.4l84.6-60.4c5.1-3.7 8.4-9.8 8.4-16.3V34.4c-.2-19.1-15.5-34.4-34.6-34.4Zm199.8 997H2131c8.8 0 16.3-7.4 16.3-16.3v-85.5c0-8.8-7.4-16.3-16.3-16.3h-269.9c-8.8 0-16.3 7.4-16.7 16.3v804.6c0 8.8 7.4 16.3 16.3 16.3h269.9c8.8 0 16.3-7.4 16.3-16.3v-80.4c0-8.8-7.4-16.3-16.3-16.3h-159.3c-8.8 0-16.3-7.4-16.3-16.3l-1.9-248.5c0-8.8 7.4-16.3 16.3-16.3H2080c7 0 13-4.6 15.3-11.1l26.9-82.2c3.7-10.7-4.2-21.4-15.3-21.4h-136.6c-8.8 0-16.3-7.4-16.3-16.3l-.9-177.9c-.1-8.7 7.4-16.1 16.2-16.1Zm-630.4-158.9h114.3V436.7l-57.2 37.6 25.6-100.3-67.4-48.3h85l14-45.6V.9h-114.3v837.2zm440.9 42.7h-75.7c-9.8 0-18.1 7.9-18.1 18.1l1.9 684.8c-.9 20-26.9 16.3-37.2 16.3h-63.6c-9.8 0-18.1-7.9-18.1-18.1V897.1c0-9.8-7.9-18.1-18.1-18.1h-79c-10.2 0-18.6 7.9-18.1 18.1v751.2c0 37.6 30.2 67.8 67.8 67.8l208.6 1.9c37.6 0 67.8-30.2 67.8-67.8V899c-.1-9.8-8-18.2-18.2-18.2Zm-386.6-1.8H1087c-11.1 0-20.4 9.3-20.4 20.4v796.3c0 11.1 9.3 20.4 20.4 20.4h171.9c33.4-8.4 59-31.6 59-31.6l7.9 20.4c2.8 7.9 10.7 13 19 13h48.3c11.1 0 20.4-9.3 20.4-20.4v-426c0-11.1-9.3-20.4-20.4-20.4l-113.8.5c-8.4.5-16.3 5.6-19 13.9l-27.9 79.9c-4.6 13.5 5.1 27.4 19.5 26.9l28.3-.5c11.6 0 20.9 8.8 20.9 20.4v188.2c0 11.1-9.3 20.4-20.4 20.4h-75.3c-11.1 0-20.4-9.3-20.4-20.4v-560.7c0-11.1 9.3-20.4 20.4-20.4l74.8-.5c11.1 0 20.4 9.3 20.4 20.4v127.3c0 16.7 18.6 26.5 32.1 16.7l72.5-52c5.1-4.2 8.4-10.2 8.4-16.7V899.4c.1-11.1-9.2-20.4-20.4-20.4Zm-1324 2.8h89.7c7.9 0 14.4 6.5 14.4 14.4v692.2c0 7.9 6.5 14.4 14.4 14.4h119.9c7.9 0 14.4 6.5 14.4 14.4v85.5c0 7.9-6.5 14.4-14.4 14.4H69.2c-7.9 0-14.4-6.5-14.4-14.4v-806c0-8.4 6.5-14.9 14.4-14.9Z" style="fill:#faed2f"/></svg>