<svg version="1.1" id="Layer_1" xmlns="http://www.w3.org/2000/svg" x="0" y="0" viewBox="0 0 612 792" style="enable-background:new 0 0 612 792" xml:space="preserve"><style>.st1{fill:#a11d21}.st2{font-family:&apos;BodoniSvtyTwoITCTT-Bold&apos;}.st3{font-size:122px}</style><path d="M368.1 288.9s-1.4 13.3-9.6 21.6c-6.3 6.3-13 6.8-21.7 8.1-5.1.8-16 2-18.7-.5-1.3-1.1-1.7-11.4-1.7-14.9-.2-3.8-.8-8.9-1.5-9.7-.4 1.7-1.4 6.2-1.7 7.4s-1.8 6.4-2 7.4c-5.3-1-10.8-1-16.2 0-.2-.9-1.7-6.2-2-7.3-.3-1.1-1.3-5.7-1.7-7.4-.8.8-1.4 5.9-1.5 9.7-.2 3.6-.5 13.8-1.7 14.9-2.8 2.5-13.7 1.2-18.7.5-8.7-1.4-15.3-1.8-21.7-8.1-8.3-8.3-9.7-21.6-9.7-21.6H107.3s37.5 12.3 52.6 37c9 14.6 7.6 31.5 5.3 40.3 33.7-1.8 61.4-1.8 89.3 8.2 37.3 13.5 44.8 41.1 48.5 50.5 3.7-9.4 11.2-37 48.5-50.5 27.8-10 55.5-10 89.3-8.2-2.3-8.7-3.6-25.6 5.3-40.3 15-24.7 52.6-37 52.6-37l-130.6-.1z" style="fill:#010101"/><text transform="matrix(1 0 0 1.5 88.722 284.008)" class="st1 st2 st3">ROGUES</text><text transform="matrix(1 0 0 1.5 50.146 511.149)" class="st1 st2 st3">GALLERY</text></svg>