<?xml version="1.0" encoding="UTF-8"?>
<svg id="Layer_1" data-name="Layer 1" xmlns="http://www.w3.org/2000/svg" viewBox="0 0 258.51 151.38">
  <defs>
    <style>
      .cls-1 {
        fill: none;
      }

      .cls-2 {
        fill: #fff;
      }

      .cls-3 {
        fill: #191919;
      }
    </style>
  </defs>
  <path class="cls-1" d="M47.26,52.19c.06-.11,.11-.23,.16-.34-.05,.12-.1,.23-.16,.34Z"/>
  <path class="cls-1" d="M47.49,51.61c.03-.09,.05-.18,.07-.27-.02,.09-.04,.18-.07,.27Z"/>
  <path class="cls-1" d="M46.14,53.32c.32-.22,.6-.45,.8-.67-.25,.25-.52,.46-.8,.67Z"/>
  <polygon class="cls-2" points="46.94 52.65 46.94 52.65 46.94 52.66 46.94 52.65 46.94 52.65"/>
  <path class="cls-2" d="M46.14,53.32c-1.19,.87-2.61,1.42-3.98,1.97-1.71,.65-3.46,1.2-5.22,1.71-3.52,1.01-7.09,1.86-10.66,2.64-6.19,1.35-12.42,2.51-18.68,3.53,6.23,.96,12.42,2.1,18.58,3.51,3.55,.83,7.09,1.75,10.58,2.93,1.74,.6,3.47,1.25,5.15,2.09,.84,.43,1.67,.89,2.45,1.49,.76,.6,1.59,1.3,1.98,2.5,.19,.59,.16,1.29-.07,1.86-.22,.55-.5,1-.81,1.39-.61,.81-1.3,1.45-1.99,2.09-1.4,1.25-2.88,2.36-4.38,3.42-3.01,2.12-6.11,4.05-9.24,5.93-3.6,2.14-7.24,4.19-10.91,6.18,3.34-.71,6.7-1.34,10.09-1.89,6.46-1.01,13-1.81,19.7-1.49,1.68,.1,3.37,.3,5.06,.67,1.69,.41,3.44,.99,5.01,2.23,.78,.61,1.47,1.46,1.92,2.35,.46,.91,.69,1.9,.8,2.87,.15,1.93-.24,3.74-.78,5.4-1.14,3.31-2.89,6.21-4.78,8.95-.79,1.12-1.6,2.21-2.45,3.27,5.56-1.78,11.16-3.38,16.84-4.78,7.56-1.84,15.23-3.42,23.24-3.71,2.02,.03,4.04,.02,6.13,.41,2.08,.27,4.15,1.04,6.01,1.97,3.76,1.91,6.85,4.69,9.52,7.69,2.68,3.01,4.95,6.3,6.98,9.71,1.13,1.92,2.18,3.87,3.15,5.86,.61-1.56,1.27-3.1,1.95-4.64,1.41-3.11,2.97-6.17,4.84-9.11,.94-1.47,1.97-2.91,3.15-4.28,1.19-1.36,2.53-2.68,4.24-3.73,.83-.54,1.82-.96,2.86-1.27,.52-.12,1.12-.24,1.62-.27l1.47-.05c1.95,.05,3.8,.46,5.54,1.02,3.49,1.14,6.55,2.92,9.44,4.84,2.86,1.96,5.55,4.11,8.09,6.38,2.79,2.5,5.42,5.1,7.95,7.81-.11-.63-.22-1.26-.32-1.9-.55-3.7-.91-7.48-.66-11.38,.14-1.95,.43-3.94,1.11-5.95,.67-1.98,1.79-4.09,3.74-5.59,.94-.78,2.07-1.28,3.21-1.65,.55-.15,1.09-.25,1.64-.36l1.58-.16c2.06-.11,3.99,.06,5.9,.3,3.79,.51,7.41,1.4,10.98,2.4,3.57,1,7.07,2.15,10.53,3.38,2.39,.85,4.76,1.75,7.12,2.66-2.36-2.26-4.68-4.57-6.93-6.99-2.74-3.03-5.44-6.1-7.66-9.88-.27-.49-.55-.96-.78-1.49l-.36-.79-.32-.86c-.37-1.18-.76-2.5-.43-4.25,.19-.88,.58-1.64,1.01-2.27,.44-.61,.93-1.12,1.42-1.53,.98-.85,1.98-1.44,2.98-1.97,3.98-2,7.95-3.01,11.94-3.96,2.71-.62,5.42-1.13,8.13-1.58-4.43-.51-8.85-1.15-13.28-2.06-2.29-.47-4.58-1.04-6.88-1.79-2.29-.78-4.61-1.62-6.91-3.41-.29-.25-.57-.54-.85-.82-.28-.25-.54-.63-.79-1.01-.51-.65-.93-1.81-.92-2.86-.01-1.06,.29-1.99,.65-2.74,.37-.77,.81-1.35,1.26-1.91,1.82-2.12,3.83-3.49,5.84-4.8,3.43-2.17,6.96-3.94,10.53-5.58-2.97,.48-5.95,.91-8.96,1.25-4.3,.49-8.65,.82-13.09,.72-2.23-.08-4.48-.24-6.8-.79-.59-.16-1.16-.26-1.76-.52-.59-.22-1.19-.43-1.79-.8-.3-.18-.6-.3-.89-.54l-.85-.69c-.28-.23-.5-.54-.74-.81-.25-.28-.46-.57-.63-.89-.8-1.24-1.09-2.58-1.3-3.85-.05-.63-.14-1.27-.11-1.87v-.92s.08-.89,.08-.89c.23-2.36,.79-4.57,1.46-6.7,1.37-4.25,3.21-8.22,5.21-12.09,.12-.23,.25-.46,.38-.7-2.6,2.06-5.25,4.07-7.96,6.01-6.07,4.23-12.36,8.3-19.59,10.89-1.81,.64-3.71,1.14-5.71,1.37l-.75,.09-.77,.02c-.51,.02-1.03,.03-1.56-.03-1.03-.06-2.18-.29-3.18-.7-2.05-.79-3.67-2.12-5.07-3.53-1.39-1.42-2.56-2.98-3.6-4.58-2.08-3.21-3.69-6.61-5.09-10.07-.91-2.26-1.72-4.53-2.45-6.85-1.04,1.81-2.12,3.59-3.27,5.35-1.86,2.84-3.86,5.6-6.12,8.19-2.28,2.57-4.76,5.05-7.92,6.85-1.58,.88-3.38,1.58-5.35,1.7-1.94,.1-3.78-.33-5.46-.94-3.38-1.26-6.25-3.25-8.93-5.37-2.68-2.14-5.11-4.5-7.46-6.94-3.14-3.32-6.07-6.8-8.83-10.42,.44,1.74,.85,3.48,1.21,5.24,.79,3.91,1.4,7.87,1.53,11.91,.06,2.01,0,4.05-.29,6.08-.3,2.02-.85,4.07-1.96,5.93-1.07,1.87-3.01,3.32-5.1,3.86-2.09,.55-4.16,.49-6.17,.3-4.03-.41-7.9-1.45-11.69-2.63-3.79-1.19-7.5-2.6-11.17-4.09-5.72-2.35-11.33-4.92-16.85-7.68,3.15,2.3,6.23,4.7,9.17,7.27,2.11,1.87,4.18,3.81,5.97,6,.89,1.09,1.73,2.25,2.31,3.54,.32,.63,.48,1.34,.54,2.04,0,.21-.03,.43-.07,.63-.02,.09-.05,.18-.07,.27-.02,.08-.05,.16-.08,.23-.05,.12-.09,.23-.16,.34-.09,.16-.2,.32-.32,.47,0,0,0,0,0,0-.2,.22-.48,.44-.8,.67Z"/>
  <path class="cls-3" d="M218.07,104.22c-2.61-2.87-5.18-5.87-7-9-.21-.39-.45-.78-.61-1.16l-.27-.57-.2-.55c-.24-.7-.34-1.39-.27-1.62,.03-.1,.09-.24,.21-.44,.15-.19,.35-.42,.62-.65,.52-.46,1.25-.91,2.02-1.31,3.17-1.6,6.98-2.63,10.75-3.5,3.8-.86,7.68-1.53,11.58-2.11,7.8-1.14,15.73-1.93,23.59-2.44l-.09-4.94c-9.01-.23-18.1-.78-27.06-1.77-4.48-.5-8.94-1.13-13.29-2.02-2.18-.44-4.32-.98-6.36-1.64-2.01-.65-4.02-1.5-5.33-2.52-.23-.25-.58-.51-.64-.7-.21-.25-.14-.23-.16-.32-.04-.14,.22-.82,.79-1.48,1.14-1.36,2.91-2.66,4.71-3.82,3.66-2.33,7.71-4.3,11.8-6.14,8.21-3.65,16.75-6.82,25.29-9.67l-1.32-4.51c-8.17,2.13-16.49,4-24.81,5.53-4.16,.76-8.34,1.43-12.52,1.92-4.17,.5-8.36,.84-12.46,.76-2.03-.06-4.06-.21-5.9-.63-.44-.12-.93-.2-1.31-.38-.41-.15-.82-.29-1.13-.49-.72-.34-1.12-.79-1.5-1.38-.74-1.16-.92-3-.74-4.87,.17-1.89,.64-3.86,1.24-5.79,1.23-3.89,2.96-7.71,4.87-11.43,1.92-3.71,4.03-7.41,6.28-10.89L207.57,.18l-11.82,10.84c-5.3,4.86-10.95,9.49-16.78,13.74-5.85,4.18-11.98,8.18-18.54,10.59-1.63,.6-3.29,1.04-4.92,1.24-1.63,.19-3.22,.16-4.55-.36-1.39-.5-2.7-1.51-3.88-2.68-1.18-1.18-2.24-2.55-3.21-4-1.93-2.92-3.51-6.14-4.89-9.44-1.37-3.3-2.58-6.75-3.53-10.15l-1.11-3.98-1.89,3.67c-2.98,5.79-6.49,11.49-10.67,16.45-2.11,2.44-4.43,4.75-7.07,6.29-1.32,.76-2.71,1.28-4.09,1.38-1.4,.09-2.9-.21-4.34-.73-2.91-1.04-5.64-2.86-8.2-4.85-2.57-2-4.96-4.28-7.26-6.63-4.57-4.74-8.81-9.9-12.67-15.24l-4.57-6.31,2.5,7.36c1.24,3.67,2.3,7.47,3.15,11.27,.84,3.81,1.5,7.67,1.69,11.54,.09,1.93,.07,3.86-.18,5.74-.25,1.87-.72,3.72-1.63,5.28-.88,1.58-2.33,2.68-4.05,3.17-1.74,.5-3.68,.5-5.59,.35-3.84-.33-7.67-1.27-11.43-2.38-3.76-1.11-7.47-2.44-11.14-3.87-7.33-2.87-14.54-6.12-21.58-9.64l-.38,.65c4.7,3.06,9.29,6.34,13.6,9.95,2.15,1.81,4.24,3.7,6.07,5.83,.91,1.07,1.77,2.19,2.37,3.46,.33,.62,.5,1.31,.58,2,.02,.7-.2,1.39-.64,1.95,0,0,0,0,0,0,.12-.15,.23-.3,.32-.47,.06-.11,.11-.23,.16-.34,.03-.08,.06-.15,.08-.23,.03-.09,.05-.18,.07-.27,.04-.21,.07-.42,.07-.63-.07-.7-.23-1.41-.54-2.04-.58-1.29-1.43-2.44-2.31-3.54-1.8-2.18-3.86-4.13-5.97-6-2.94-2.57-6.01-4.97-9.17-7.27,5.52,2.76,11.13,5.33,16.85,7.68,3.67,1.49,7.38,2.9,11.17,4.09,3.79,1.18,7.66,2.22,11.69,2.63,2.01,.18,4.09,.25,6.17-.3,2.09-.54,4.03-1.99,5.1-3.86,1.11-1.85,1.65-3.9,1.96-5.93,.3-2.03,.35-4.06,.29-6.08-.13-4.03-.74-8-1.53-11.91-.36-1.76-.77-3.51-1.21-5.24,2.77,3.61,5.69,7.1,8.83,10.42,2.34,2.44,4.78,4.81,7.46,6.94,2.68,2.12,5.55,4.12,8.93,5.37,1.69,.61,3.52,1.04,5.46,.94,1.97-.12,3.77-.82,5.35-1.7,3.16-1.81,5.65-4.29,7.92-6.85,2.26-2.59,4.25-5.35,6.12-8.19,1.14-1.76,2.23-3.53,3.27-5.35,.73,2.31,1.54,4.59,2.45,6.85,1.41,3.46,3.02,6.86,5.09,10.07,1.04,1.6,2.21,3.16,3.6,4.58,1.4,1.4,3.02,2.74,5.07,3.53,1,.41,2.15,.64,3.18,.7,.53,.07,1.04,.05,1.56,.03l.77-.02,.75-.09c2-.23,3.9-.73,5.71-1.37,7.24-2.59,13.52-6.66,19.59-10.89,2.72-1.94,5.36-3.94,7.96-6.01-.12,.23-.25,.46-.38,.7-2,3.86-3.84,7.83-5.21,12.09-.67,2.13-1.23,4.34-1.46,6.7l-.08,.89v.92c-.04,.6,.05,1.25,.11,1.87,.21,1.27,.51,2.61,1.3,3.85,.16,.32,.38,.61,.63,.89,.24,.27,.46,.58,.74,.81l.85,.69c.29,.24,.59,.36,.89,.54,.6,.36,1.2,.58,1.79,.8,.6,.25,1.17,.35,1.76,.52,2.33,.54,4.58,.71,6.8,.79,4.44,.11,8.79-.23,13.09-.72,3.01-.34,5.99-.77,8.96-1.25-3.57,1.65-7.1,3.41-10.53,5.58-2.01,1.31-4.01,2.68-5.84,4.8-.45,.56-.89,1.14-1.26,1.91-.36,.75-.66,1.67-.65,2.74,0,1.04,.42,2.2,.92,2.86,.24,.38,.5,.76,.79,1.01,.28,.28,.56,.57,.85,.82,2.3,1.79,4.62,2.62,6.91,3.41,2.3,.75,4.59,1.32,6.88,1.79,4.43,.92,8.86,1.55,13.28,2.06-2.71,.45-5.42,.96-8.13,1.58-3.98,.95-7.96,1.96-11.94,3.96-.99,.53-1.99,1.12-2.98,1.97-.49,.42-.97,.93-1.42,1.53-.43,.63-.82,1.39-1.01,2.27-.33,1.76,.07,3.07,.43,4.25l.32,.86,.36,.79c.24,.54,.52,1,.78,1.49,2.22,3.78,4.92,6.85,7.66,9.88,2.25,2.42,4.57,4.73,6.93,6.99-2.36-.91-4.73-1.81-7.12-2.66-3.46-1.23-6.96-2.38-10.53-3.38-3.57-1-7.19-1.89-10.98-2.4-1.9-.24-3.84-.41-5.9-.3l-1.58,.16c-.55,.11-1.09,.21-1.64,.36-1.14,.37-2.27,.87-3.21,1.65-1.96,1.5-3.07,3.61-3.74,5.59-.68,2.01-.97,4-1.11,5.95-.25,3.9,.1,7.68,.66,11.38,.1,.64,.21,1.27,.32,1.9-2.53-2.71-5.17-5.32-7.95-7.81-2.54-2.28-5.23-4.42-8.09-6.38-2.89-1.92-5.95-3.7-9.44-4.84-1.74-.56-3.59-.96-5.54-1.02l-1.47,.05c-.49,.03-1.1,.15-1.62,.27-1.04,.3-2.03,.72-2.86,1.27-1.71,1.06-3.05,2.37-4.24,3.73-1.18,1.37-2.21,2.81-3.15,4.28-1.88,2.94-3.44,6-4.84,9.11-.69,1.54-1.34,3.08-1.95,4.64-.98-1.99-2.02-3.94-3.15-5.86-2.02-3.41-4.3-6.69-6.98-9.71-2.68-3-5.77-5.78-9.52-7.69-1.86-.94-3.93-1.7-6.01-1.97-2.09-.39-4.11-.39-6.13-.41-8,.29-15.67,1.86-23.24,3.71-5.68,1.4-11.28,3-16.84,4.78,.84-1.07,1.66-2.15,2.45-3.27,1.89-2.75,3.64-5.64,4.78-8.95,.54-1.66,.93-3.47,.78-5.4-.11-.97-.34-1.95-.8-2.87-.45-.89-1.14-1.74-1.92-2.35-1.57-1.23-3.32-1.81-5.01-2.23-1.7-.37-3.39-.57-5.06-.67-6.7-.32-13.23,.48-19.7,1.49-3.38,.55-6.74,1.18-10.09,1.89,3.67-2,7.31-4.05,10.91-6.18,3.13-1.88,6.24-3.81,9.24-5.93,1.5-1.06,2.98-2.17,4.38-3.42,.69-.64,1.38-1.29,1.99-2.09,.31-.39,.6-.84,.81-1.39,.23-.57,.27-1.27,.07-1.86-.39-1.2-1.22-1.9-1.98-2.5-.79-.6-1.62-1.06-2.45-1.49-1.68-.84-3.41-1.49-5.15-2.09-3.48-1.18-7.02-2.1-10.58-2.93-6.15-1.42-12.35-2.55-18.58-3.51,6.26-1.02,12.49-2.18,18.68-3.53,3.58-.79,7.14-1.63,10.66-2.64,1.76-.51,3.51-1.06,5.22-1.71,1.36-.55,2.78-1.1,3.98-1.97,.28-.2,.55-.42,.8-.67,0,0,0,0,0,0h0c-1.34,1.27-3.12,1.88-4.82,2.52-1.72,.61-3.48,1.12-5.24,1.59-3.54,.93-7.11,1.69-10.7,2.4-7.18,1.39-14.4,2.55-21.64,3.57l-3.05,.43,3.05,.5c7.16,1.16,14.3,2.56,21.33,4.3,3.51,.88,7,1.85,10.39,3.06,1.69,.61,3.36,1.28,4.92,2.09,.77,.41,1.53,.85,2.18,1.37,.65,.5,1.22,1.12,1.37,1.69,.08,.28,.06,.52-.06,.8-.12,.29-.32,.62-.59,.94-.49,.64-1.14,1.24-1.8,1.82-1.33,1.15-2.78,2.21-4.27,3.22-2.97,2.02-6.08,3.89-9.21,5.69-6.28,3.59-12.72,6.97-19.21,10.17L0,103.54l10.44-2.5c6.26-1.5,12.62-2.78,18.99-3.74,6.36-.93,12.82-1.63,19.11-1.26,1.56,.11,3.1,.32,4.58,.65,1.45,.36,2.84,.9,3.82,1.69,.97,.75,1.49,1.9,1.6,3.2,.09,1.32-.2,2.76-.68,4.17-1,2.83-2.66,5.55-4.47,8.12-1.83,2.56-3.9,5.05-6.04,7.31l-4.46,4.69,6.15-2.03c7.26-2.4,14.68-4.53,22.13-6.29,7.44-1.74,15.02-3.19,22.48-3.37,1.84,.04,3.69,.06,5.4,.41,1.75,.24,3.35,.86,4.93,1.67,3.13,1.63,5.89,4.12,8.31,6.89,2.43,2.79,4.55,5.9,6.43,9.15,1.87,3.24,3.57,6.7,4.91,10.1l2.07,5.24,1.88-5.34c2.15-6.1,4.79-12.24,8.22-17.62,1.72-2.64,3.74-5.21,6.04-6.63,.57-.38,1.14-.58,1.7-.76,.29-.06,.51-.11,.85-.13l1.03-.03c1.4,.05,2.84,.36,4.27,.83,2.87,.95,5.65,2.55,8.3,4.34,2.64,1.83,5.17,3.87,7.59,6.06,4.83,4.36,9.37,9.24,13.45,14.28l7.08,8.75-3.05-10.85c-.94-3.33-1.69-6.87-2.2-10.34-.51-3.48-.8-7-.56-10.35,.12-1.67,.39-3.3,.89-4.74,.49-1.44,1.22-2.65,2.18-3.37,.46-.4,1.03-.62,1.61-.83l1.02-.22,1.14-.12c1.58-.08,3.28,.06,4.98,.28,3.42,.47,6.88,1.31,10.3,2.28,3.43,.97,6.84,2.1,10.23,3.3,6.76,2.41,13.49,5.14,20.02,8.08l15.74,7.07-13.17-11.17c-5.98-5.08-11.85-10.48-17.16-16.21Z"/>
</svg>