<?xml version="1.0" encoding="utf-8"?>
<!-- Generator: Adobe Illustrator 27.0.1, SVG Export Plug-In . SVG Version: 6.00 Build 0)  -->
<svg version="1.1" id="Layer_1" xmlns="http://www.w3.org/2000/svg" xmlns:xlink="http://www.w3.org/1999/xlink" x="0px" y="0px"
	 viewBox="0 0 258.5 151.4" style="enable-background:new 0 0 258.5 151.4;" xml:space="preserve">
<style type="text/css">
	.st0{fill:none;}
	.st1{fill:#FFFFFF;}
	.st2{fill:#415AA9;}
	.st3{fill:#191919;}
</style>
<path class="st0" d="M47.3,52.2c0.1-0.1,0.1-0.2,0.2-0.3C47.4,52,47.3,52.1,47.3,52.2z"/>
<path class="st0" d="M47.5,51.6c0-0.1,0-0.2,0.1-0.3C47.5,51.4,47.5,51.5,47.5,51.6z"/>
<path class="st0" d="M46.1,53.3c0.3-0.2,0.6-0.5,0.8-0.7C46.7,52.9,46.4,53.1,46.1,53.3z"/>
<polygon class="st1" points="46.9,52.7 46.9,52.7 46.9,52.7 46.9,52.7 "/>
<path class="st2" d="M46.1,53.3c-1.2,0.9-2.6,1.4-4,2c-1.7,0.7-3.5,1.2-5.2,1.7c-3.5,1-7.1,1.9-10.7,2.6c-6.2,1.3-12.4,2.5-18.7,3.5
	c6.2,1,12.4,2.1,18.6,3.5c3.5,0.8,7.1,1.8,10.6,2.9c1.7,0.6,3.5,1.2,5.2,2.1c0.8,0.4,1.7,0.9,2.5,1.5c0.8,0.6,1.6,1.3,2,2.5
	c0.2,0.6,0.2,1.3-0.1,1.9c-0.2,0.6-0.5,1-0.8,1.4c-0.6,0.8-1.3,1.4-2,2.1c-1.4,1.2-2.9,2.4-4.4,3.4c-3,2.1-6.1,4.1-9.2,5.9
	c-3.6,2.1-7.2,4.2-10.9,6.2c3.3-0.7,6.7-1.3,10.1-1.9c6.5-1,13-1.8,19.7-1.5c1.7,0.1,3.4,0.3,5.1,0.7c1.7,0.4,3.4,1,5,2.2
	c0.8,0.6,1.5,1.5,1.9,2.3c0.5,0.9,0.7,1.9,0.8,2.9c0.2,1.9-0.2,3.7-0.8,5.4c-1.1,3.3-2.9,6.2-4.8,8.9c-0.8,1.1-1.6,2.2-2.5,3.3
	c5.6-1.8,11.2-3.4,16.8-4.8c7.6-1.8,15.2-3.4,23.2-3.7c2,0,4,0,6.1,0.4c2.1,0.3,4.2,1,6,2c3.8,1.9,6.8,4.7,9.5,7.7
	c2.7,3,4.9,6.3,7,9.7c1.1,1.9,2.2,3.9,3.2,5.9c0.6-1.6,1.3-3.1,1.9-4.6c1.4-3.1,3-6.2,4.8-9.1c0.9-1.5,2-2.9,3.1-4.3
	c1.2-1.4,2.5-2.7,4.2-3.7c0.8-0.5,1.8-1,2.9-1.3c0.5-0.1,1.1-0.2,1.6-0.3l1.5-0.1c1.9,0.1,3.8,0.5,5.5,1c3.5,1.1,6.6,2.9,9.4,4.8
	c2.9,2,5.6,4.1,8.1,6.4c2.8,2.5,5.4,5.1,7.9,7.8c-0.1-0.6-0.2-1.3-0.3-1.9c-0.6-3.7-0.9-7.5-0.7-11.4c0.1-1.9,0.4-3.9,1.1-5.9
	c0.7-2,1.8-4.1,3.7-5.6c0.9-0.8,2.1-1.3,3.2-1.7c0.6-0.2,1.1-0.2,1.6-0.4l1.6-0.2c2.1-0.1,4,0.1,5.9,0.3c3.8,0.5,7.4,1.4,11,2.4
	c3.6,1,7.1,2.2,10.5,3.4c2.4,0.8,4.8,1.8,7.1,2.7c-2.4-2.3-4.7-4.6-6.9-7c-2.7-3-5.4-6.1-7.7-9.9c-0.3-0.5-0.6-1-0.8-1.5l-0.4-0.8
	l-0.3-0.9c-0.4-1.2-0.8-2.5-0.4-4.2c0.2-0.9,0.6-1.6,1-2.3c0.4-0.6,0.9-1.1,1.4-1.5c1-0.8,2-1.4,3-2c4-2,7.9-3,11.9-4
	c2.7-0.6,5.4-1.1,8.1-1.6c-4.4-0.5-8.9-1.2-13.3-2.1c-2.3-0.5-4.6-1-6.9-1.8c-2.3-0.8-4.6-1.6-6.9-3.4c-0.3-0.2-0.6-0.5-0.9-0.8
	c-0.3-0.2-0.5-0.6-0.8-1c-0.5-0.7-0.9-1.8-0.9-2.9c0-1.1,0.3-2,0.6-2.7c0.4-0.8,0.8-1.3,1.3-1.9c1.8-2.1,3.8-3.5,5.8-4.8
	c3.4-2.2,7-3.9,10.5-5.6c-3,0.5-5.9,0.9-9,1.2c-4.3,0.5-8.6,0.8-13.1,0.7c-2.2-0.1-4.5-0.2-6.8-0.8c-0.6-0.2-1.2-0.3-1.8-0.5
	c-0.6-0.2-1.2-0.4-1.8-0.8c-0.3-0.2-0.6-0.3-0.9-0.5l-0.9-0.7c-0.3-0.2-0.5-0.5-0.7-0.8c-0.2-0.3-0.5-0.6-0.6-0.9
	c-0.8-1.2-1.1-2.6-1.3-3.8c-0.1-0.6-0.1-1.3-0.1-1.9v-0.9l0.1-0.9c0.2-2.4,0.8-4.6,1.5-6.7c1.4-4.2,3.2-8.2,5.2-12.1
	c0.1-0.2,0.2-0.5,0.4-0.7c-2.6,2.1-5.2,4.1-8,6c-6.1,4.2-12.4,8.3-19.6,10.9c-1.8,0.6-3.7,1.1-5.7,1.4l-0.8,0.1l-0.8,0
	c-0.5,0-1,0-1.6,0c-1-0.1-2.2-0.3-3.2-0.7c-2.1-0.8-3.7-2.1-5.1-3.5c-1.4-1.4-2.6-3-3.6-4.6c-2.1-3.2-3.7-6.6-5.1-10.1
	c-0.9-2.3-1.7-4.5-2.4-6.9c-1,1.8-2.1,3.6-3.3,5.4c-1.9,2.8-3.9,5.6-6.1,8.2c-2.3,2.6-4.8,5-7.9,6.8c-1.6,0.9-3.4,1.6-5.3,1.7
	c-1.9,0.1-3.8-0.3-5.5-0.9c-3.4-1.3-6.2-3.2-8.9-5.4c-2.7-2.1-5.1-4.5-7.5-6.9c-3.1-3.3-6.1-6.8-8.8-10.4c0.4,1.7,0.8,3.5,1.2,5.2
	c0.8,3.9,1.4,7.9,1.5,11.9c0.1,2,0,4.1-0.3,6.1c-0.3,2-0.8,4.1-2,5.9c-1.1,1.9-3,3.3-5.1,3.9c-2.1,0.5-4.2,0.5-6.2,0.3
	c-4-0.4-7.9-1.5-11.7-2.6c-3.8-1.2-7.5-2.6-11.2-4.1c-5.7-2.3-11.3-4.9-16.9-7.7c3.1,2.3,6.2,4.7,9.2,7.3c2.1,1.9,4.2,3.8,6,6
	c0.9,1.1,1.7,2.2,2.3,3.5c0.3,0.6,0.5,1.3,0.5,2c0,0.2,0,0.4-0.1,0.6c0,0.1,0,0.2-0.1,0.3c0,0.1,0,0.2-0.1,0.2
	c0,0.1-0.1,0.2-0.2,0.3c-0.1,0.2-0.2,0.3-0.3,0.5l0,0C46.7,52.9,46.5,53.1,46.1,53.3L46.1,53.3z"/>
<path class="st3" d="M218.1,104.2c-2.6-2.9-5.2-5.9-7-9c-0.2-0.4-0.4-0.8-0.6-1.2l-0.3-0.6l-0.2-0.6c-0.2-0.7-0.3-1.4-0.3-1.6
	c0-0.1,0.1-0.2,0.2-0.4c0.1-0.2,0.4-0.4,0.6-0.7c0.5-0.5,1.2-0.9,2-1.3c3.2-1.6,7-2.6,10.8-3.5c3.8-0.9,7.7-1.5,11.6-2.1
	c7.8-1.1,15.7-1.9,23.6-2.4l-0.1-4.9c-9-0.2-18.1-0.8-27.1-1.8c-4.5-0.5-8.9-1.1-13.3-2c-2.2-0.4-4.3-1-6.4-1.6
	c-2-0.7-4-1.5-5.3-2.5c-0.2-0.2-0.6-0.5-0.6-0.7c-0.2-0.2-0.1-0.2-0.2-0.3c0-0.1,0.2-0.8,0.8-1.5c1.1-1.4,2.9-2.7,4.7-3.8
	c3.7-2.3,7.7-4.3,11.8-6.1c8.2-3.7,16.8-6.8,25.3-9.7l-1.3-4.5c-8.2,2.1-16.5,4-24.8,5.5c-4.2,0.8-8.3,1.4-12.5,1.9
	c-4.2,0.5-8.4,0.8-12.5,0.8c-2-0.1-4.1-0.2-5.9-0.6c-0.4-0.1-0.9-0.2-1.3-0.4c-0.4-0.2-0.8-0.3-1.1-0.5c-0.7-0.3-1.1-0.8-1.5-1.4
	c-0.7-1.2-0.9-3-0.7-4.9c0.2-1.9,0.6-3.9,1.2-5.8c1.2-3.9,3-7.7,4.9-11.4c1.9-3.7,4-7.4,6.3-10.9l8.7-13.5L195.8,11
	c-5.3,4.9-10.9,9.5-16.8,13.7c-5.9,4.2-12,8.2-18.5,10.6c-1.6,0.6-3.3,1-4.9,1.2c-1.6,0.2-3.2,0.2-4.6-0.4c-1.4-0.5-2.7-1.5-3.9-2.7
	c-1.2-1.2-2.2-2.5-3.2-4c-1.9-2.9-3.5-6.1-4.9-9.4c-1.4-3.3-2.6-6.8-3.5-10.1l-1.1-4l-1.9,3.7c-3,5.8-6.5,11.5-10.7,16.5
	c-2.1,2.4-4.4,4.8-7.1,6.3c-1.3,0.8-2.7,1.3-4.1,1.4c-1.4,0.1-2.9-0.2-4.3-0.7c-2.9-1-5.6-2.9-8.2-4.9c-2.6-2-5-4.3-7.3-6.6
	c-4.6-4.7-8.8-9.9-12.7-15.2L73.6,0l2.5,7.4c1.2,3.7,2.3,7.5,3.2,11.3c0.8,3.8,1.5,7.7,1.7,11.5c0.1,1.9,0.1,3.9-0.2,5.7
	c-0.2,1.9-0.7,3.7-1.6,5.3c-0.9,1.6-2.3,2.7-4.1,3.2c-1.7,0.5-3.7,0.5-5.6,0.3c-3.8-0.3-7.7-1.3-11.4-2.4c-3.8-1.1-7.5-2.4-11.1-3.9
	c-7.3-2.9-14.5-6.1-21.6-9.6l-0.4,0.6c4.7,3.1,9.3,6.3,13.6,9.9c2.2,1.8,4.2,3.7,6.1,5.8c0.9,1.1,1.8,2.2,2.4,3.5
	c0.3,0.6,0.5,1.3,0.6,2c0,0.7-0.2,1.4-0.6,2l0,0c0.1-0.2,0.2-0.3,0.3-0.5c0.1-0.1,0.1-0.2,0.2-0.3c0-0.1,0.1-0.2,0.1-0.2
	c0-0.1,0-0.2,0.1-0.3c0-0.2,0.1-0.4,0.1-0.6c-0.1-0.7-0.2-1.4-0.5-2c-0.6-1.3-1.4-2.4-2.3-3.5c-1.8-2.2-3.9-4.1-6-6
	c-2.9-2.6-6-5-9.2-7.3c5.5,2.8,11.1,5.3,16.9,7.7c3.7,1.5,7.4,2.9,11.2,4.1c3.8,1.2,7.7,2.2,11.7,2.6c2,0.2,4.1,0.2,6.2-0.3
	c2.1-0.5,4-2,5.1-3.9c1.1-1.8,1.7-3.9,2-5.9c0.3-2,0.3-4.1,0.3-6.1c-0.1-4-0.7-8-1.5-11.9c-0.4-1.8-0.8-3.5-1.2-5.2
	c2.8,3.6,5.7,7.1,8.8,10.4c2.3,2.4,4.8,4.8,7.5,6.9c2.7,2.1,5.6,4.1,8.9,5.4c1.7,0.6,3.5,1,5.5,0.9c2-0.1,3.8-0.8,5.3-1.7
	c3.2-1.8,5.7-4.3,7.9-6.9c2.3-2.6,4.2-5.4,6.1-8.2c1.1-1.8,2.2-3.5,3.3-5.4c0.7,2.3,1.5,4.6,2.4,6.9c1.4,3.5,3,6.9,5.1,10.1
	c1,1.6,2.2,3.2,3.6,4.6c1.4,1.4,3,2.7,5.1,3.5c1,0.4,2.1,0.6,3.2,0.7c0.5,0.1,1,0,1.6,0l0.8,0l0.8-0.1c2-0.2,3.9-0.7,5.7-1.4
	c7.2-2.6,13.5-6.7,19.6-10.9c2.7-1.9,5.4-3.9,8-6c-0.1,0.2-0.2,0.5-0.4,0.7c-2,3.9-3.8,7.8-5.2,12.1c-0.7,2.1-1.2,4.3-1.5,6.7
	l-0.1,0.9v0.9c0,0.6,0.1,1.2,0.1,1.9c0.2,1.3,0.5,2.6,1.3,3.8c0.2,0.3,0.4,0.6,0.6,0.9c0.2,0.3,0.5,0.6,0.7,0.8l0.9,0.7
	c0.3,0.2,0.6,0.4,0.9,0.5c0.6,0.4,1.2,0.6,1.8,0.8c0.6,0.2,1.2,0.3,1.8,0.5c2.3,0.5,4.6,0.7,6.8,0.8c4.4,0.1,8.8-0.2,13.1-0.7
	c3-0.3,6-0.8,9-1.2c-3.6,1.7-7.1,3.4-10.5,5.6c-2,1.3-4,2.7-5.8,4.8c-0.4,0.6-0.9,1.1-1.3,1.9c-0.4,0.8-0.7,1.7-0.6,2.7
	c0,1,0.4,2.2,0.9,2.9c0.2,0.4,0.5,0.8,0.8,1c0.3,0.3,0.6,0.6,0.9,0.8c2.3,1.8,4.6,2.6,6.9,3.4c2.3,0.8,4.6,1.3,6.9,1.8
	c4.4,0.9,8.9,1.6,13.3,2.1c-2.7,0.4-5.4,1-8.1,1.6c-4,0.9-8,2-11.9,4c-1,0.5-2,1.1-3,2c-0.5,0.4-1,0.9-1.4,1.5
	c-0.4,0.6-0.8,1.4-1,2.3c-0.3,1.8,0.1,3.1,0.4,4.2l0.3,0.9l0.4,0.8c0.2,0.5,0.5,1,0.8,1.5c2.2,3.8,4.9,6.8,7.7,9.9
	c2.2,2.4,4.6,4.7,6.9,7c-2.4-0.9-4.7-1.8-7.1-2.7c-3.5-1.2-7-2.4-10.5-3.4c-3.6-1-7.2-1.9-11-2.4c-1.9-0.2-3.8-0.4-5.9-0.3l-1.6,0.2
	c-0.6,0.1-1.1,0.2-1.6,0.4c-1.1,0.4-2.3,0.9-3.2,1.7c-2,1.5-3.1,3.6-3.7,5.6c-0.7,2-1,4-1.1,5.9c-0.2,3.9,0.1,7.7,0.7,11.4
	c0.1,0.6,0.2,1.3,0.3,1.9c-2.5-2.7-5.2-5.3-7.9-7.8c-2.5-2.3-5.2-4.4-8.1-6.4c-2.9-1.9-5.9-3.7-9.4-4.8c-1.7-0.6-3.6-1-5.5-1
	l-1.5,0.1c-0.5,0-1.1,0.2-1.6,0.3c-1,0.3-2,0.7-2.9,1.3c-1.7,1.1-3.1,2.4-4.2,3.7c-1.2,1.4-2.2,2.8-3.1,4.3c-1.9,2.9-3.4,6-4.8,9.1
	c-0.7,1.5-1.3,3.1-1.9,4.6c-1-2-2-3.9-3.2-5.9c-2-3.4-4.3-6.7-7-9.7c-2.7-3-5.8-5.8-9.5-7.7c-1.9-0.9-3.9-1.7-6-2
	c-2.1-0.4-4.1-0.4-6.1-0.4c-8,0.3-15.7,1.9-23.2,3.7c-5.7,1.4-11.3,3-16.8,4.8c0.8-1.1,1.7-2.2,2.5-3.3c1.9-2.8,3.6-5.6,4.8-8.9
	c0.5-1.7,0.9-3.5,0.8-5.4c-0.1-1-0.3-1.9-0.8-2.9c-0.5-0.9-1.1-1.7-1.9-2.3c-1.6-1.2-3.3-1.8-5-2.2c-1.7-0.4-3.4-0.6-5.1-0.7
	C42,92.9,35.5,93.7,29,94.7c-3.4,0.6-6.7,1.2-10.1,1.9c3.7-2,7.3-4.1,10.9-6.2c3.1-1.9,6.2-3.8,9.2-5.9c1.5-1.1,3-2.2,4.4-3.4
	c0.7-0.6,1.4-1.3,2-2.1c0.3-0.4,0.6-0.8,0.8-1.4c0.2-0.6,0.3-1.3,0.1-1.9c-0.4-1.2-1.2-1.9-2-2.5c-0.8-0.6-1.6-1.1-2.5-1.5
	c-1.7-0.8-3.4-1.5-5.2-2.1c-3.5-1.2-7-2.1-10.6-2.9c-6.1-1.4-12.4-2.6-18.6-3.5c6.3-1,12.5-2.2,18.7-3.5c3.6-0.8,7.1-1.6,10.7-2.6
	c1.8-0.5,3.5-1.1,5.2-1.7c1.4-0.5,2.8-1.1,4-2c0.3-0.2,0.5-0.4,0.8-0.7l0,0l0,0c-1.3,1.3-3.1,1.9-4.8,2.5c-1.7,0.6-3.5,1.1-5.2,1.6
	c-3.5,0.9-7.1,1.7-10.7,2.4c-7.2,1.4-14.4,2.5-21.6,3.6l-3,0.4l3,0.5c7.2,1.2,14.3,2.6,21.3,4.3c3.5,0.9,7,1.8,10.4,3.1
	c1.7,0.6,3.4,1.3,4.9,2.1c0.8,0.4,1.5,0.8,2.2,1.4c0.7,0.5,1.2,1.1,1.4,1.7c0.1,0.3,0.1,0.5-0.1,0.8c-0.1,0.3-0.3,0.6-0.6,0.9
	c-0.5,0.6-1.1,1.2-1.8,1.8C40.9,80.9,39.5,82,38,83c-3,2-6.1,3.9-9.2,5.7c-6.3,3.6-12.7,7-19.2,10.2L0,103.5l10.4-2.5
	c6.3-1.5,12.6-2.8,19-3.7c6.4-0.9,12.8-1.6,19.1-1.3c1.6,0.1,3.1,0.3,4.6,0.7c1.5,0.4,2.8,0.9,3.8,1.7c1,0.8,1.5,1.9,1.6,3.2
	c0.1,1.3-0.2,2.8-0.7,4.2c-1,2.8-2.7,5.6-4.5,8.1c-1.8,2.6-3.9,5.1-6,7.3l-4.5,4.7l6.2-2c7.3-2.4,14.7-4.5,22.1-6.3
	c7.4-1.7,15-3.2,22.5-3.4c1.8,0,3.7,0.1,5.4,0.4c1.8,0.2,3.3,0.9,4.9,1.7c3.1,1.6,5.9,4.1,8.3,6.9c2.4,2.8,4.6,5.9,6.4,9.2
	c1.9,3.2,3.6,6.7,4.9,10.1l2.1,5.2l1.9-5.3c2.1-6.1,4.8-12.2,8.2-17.6c1.7-2.6,3.7-5.2,6-6.6c0.6-0.4,1.1-0.6,1.7-0.8
	c0.3-0.1,0.5-0.1,0.9-0.1l1,0c1.4,0.1,2.8,0.4,4.3,0.8c2.9,0.9,5.6,2.6,8.3,4.3c2.6,1.8,5.2,3.9,7.6,6.1c4.8,4.4,9.4,9.2,13.4,14.3
	l7.1,8.8l-3.1-10.9c-0.9-3.3-1.7-6.9-2.2-10.3c-0.5-3.5-0.8-7-0.6-10.3c0.1-1.7,0.4-3.3,0.9-4.7c0.5-1.4,1.2-2.7,2.2-3.4
	c0.5-0.4,1-0.6,1.6-0.8l1-0.2l1.1-0.1c1.6-0.1,3.3,0.1,5,0.3c3.4,0.5,6.9,1.3,10.3,2.3c3.4,1,6.8,2.1,10.2,3.3
	c6.8,2.4,13.5,5.1,20,8.1l15.7,7.1l-13.2-11.2C229.3,115.3,223.4,109.9,218.1,104.2L218.1,104.2z"/>
</svg>
