<?xml version="1.0" encoding="utf-8"?>
<!-- Generator: Adobe Illustrator 27.0.1, SVG Export Plug-In . SVG Version: 6.00 Build 0)  -->
<svg version="1.1" id="Layer_1" xmlns="http://www.w3.org/2000/svg" xmlns:xlink="http://www.w3.org/1999/xlink" x="0px" y="0px"
	 viewBox="0 0 612 792" style="enable-background:new 0 0 612 792;" xml:space="preserve">
<style type="text/css">
	.st0{fill:#010101;}
	.st1{fill:#A11D21;}
	.st2{font-family:'BodoniSvtyTwoITCTT-Bold';}
	.st3{font-size:122px;}
</style>
<path class="st0" d="M368.1,288.9c0,0-1.4,13.3-9.6,21.6c-6.3,6.3-13,6.8-21.7,8.1c-5.1,0.8-16,2-18.7-0.5
	c-1.3-1.1-1.7-11.4-1.7-14.9c-0.2-3.8-0.8-8.9-1.5-9.7c-0.4,1.7-1.4,6.2-1.7,7.4s-1.8,6.4-2,7.4c-5.3-1-10.8-1-16.2,0
	c-0.2-0.9-1.7-6.2-2-7.3c-0.3-1.1-1.3-5.7-1.7-7.4c-0.8,0.8-1.4,5.9-1.5,9.7c-0.2,3.6-0.5,13.8-1.7,14.9c-2.8,2.5-13.7,1.2-18.7,0.5
	c-8.7-1.4-15.3-1.8-21.7-8.1c-8.3-8.3-9.7-21.6-9.7-21.6H107.3c0,0,37.5,12.3,52.6,37c9,14.6,7.6,31.5,5.3,40.3
	c33.7-1.8,61.4-1.8,89.3,8.2c37.3,13.5,44.8,41.1,48.5,50.5c3.7-9.4,11.2-37,48.5-50.5c27.8-10,55.5-10,89.3-8.2
	c-2.3-8.7-3.6-25.6,5.3-40.3c15-24.7,52.6-37,52.6-37L368.1,288.9L368.1,288.9z"/>
<g>
	<text transform="matrix(1 0 0 1.5 88.722 284.0077)" class="st1 st2 st3">ROGUES</text>
</g>
<text transform="matrix(1 0 0 1.5 50.1463 511.1486)" class="st1 st2 st3">GALLERY</text>
</svg>
