<?xml version="1.0" encoding="UTF-8"?>
<svg id="Layer_1" data-name="Layer 1" xmlns="http://www.w3.org/2000/svg" viewBox="0 0 300.09 225.74">
  <defs>
    <style>
      .cls-1 {
        fill: #fff;
      }

      .cls-2 {
        fill: #191919;
      }

      .cls-3 {
        fill: #19181a;
      }
    </style>
  </defs>
  <path class="cls-1" d="M144.15,30.35c1.71-.04,3.42-.07,5.15-.07,1.18,0,2.35,.01,3.51,.03-1.17-.02-2.34-.03-3.51-.03-1.72,0-3.43,.03-5.15,.07Z"/>
  <path class="cls-1" d="M216.15,41.69c5.33,1.94,10.52,4.26,15.57,6.82,5.04,2.58,9.95,5.44,14.53,8.76,9.14,6.58,17.37,14.7,22.7,24.54,5.42,9.74,7.16,21.39,4.39,32.05-2.71,10.7-9.4,20.04-17.59,27.46-8.21,7.48-17.9,13.28-28.04,17.9-10.19,4.59-20.92,7.95-31.82,10.44l-.7,.16-.57,.5-22.76,20.15-11.33,10.14,1.88-4.19,7.99-18.08,2.22-5.02-5.45,.48c-13.86,1.21-27.82,.99-41.66-.4-13.83-1.45-27.53-4.26-40.69-8.68-13.12-4.44-25.84-10.47-36.75-18.95-5.42-4.25-10.44-9.05-14.48-14.59-4.02-5.53-7.17-11.75-8.61-18.42-.46-1.65-.58-3.36-.86-5.04-.06-1.7-.29-3.41-.17-5.11,0-3.42,.6-6.82,1.42-10.15,.86-3.33,2.19-6.53,3.7-9.63,1.64-3.04,3.42-6.03,5.59-8.76,4.19-5.56,9.31-10.42,14.87-14.68,5.55-4.29,11.58-7.96,17.86-11.13,12.57-6.32,26.07-10.79,39.87-13.66,13.81-2.91,27.93-4.18,42.04-4.29,11.36,.1,22.74,.9,33.95,2.79,11.22,1.81,22.28,4.65,32.91,8.61Z"/>
  <path class="cls-1" d="M137.02,30.63c-.36,.02-.72,.04-1.08,.06,.36-.02,.72-.04,1.08-.06Z"/>
  <path class="cls-1" d="M143.89,30.36c-1.55,.04-3.11,.09-4.66,.16,1.55-.07,3.1-.12,4.66-.16Z"/>
  <path class="cls-1" d="M155.98,30.39c-.15,0-.3,0-.45-.01,.15,0,.3,0,.45,.01Z"/>
  <path class="cls-2" d="M23,91.77c1-3.49,2.48-6.8,4.16-9.98,1.79-3.12,3.72-6.16,6.02-8.9,4.47-5.6,9.82-10.4,15.57-14.56,5.76-4.16,11.9-7.75,18.26-10.84,12.75-6.19,26.38-10.32,40.2-13.14,9.47-1.94,19.09-3.1,28.73-3.65,.36-.02,.72-.04,1.08-.06,.74-.04,1.47-.08,2.21-.11,1.55-.07,3.11-.12,4.66-.16,.09,0,.17,0,.26,0,1.72-.04,3.43-.06,5.15-.07-14.11,.11-28.23,1.38-42.04,4.29-13.8,2.87-27.3,7.34-39.87,13.66-6.28,3.16-12.31,6.84-17.86,11.13-5.56,4.27-10.67,9.12-14.87,14.68-2.16,2.73-3.94,5.72-5.59,8.76-1.52,3.1-2.85,6.3-3.7,9.63-.82,3.33-1.43,6.72-1.42,10.15-.12,1.71,.11,3.41,.17,5.11,.28,1.68,.4,3.39,.86,5.04,1.45,6.68,4.6,12.89,8.61,18.42,4.04,5.54,9.06,10.35,14.48,14.59,10.91,8.48,23.63,14.51,36.75,18.95,13.16,4.42,26.86,7.23,40.69,8.68,13.84,1.39,27.8,1.62,41.66,.4l5.45-.48-2.22,5.02-7.99,18.08-1.88,4.19,11.33-10.14,22.76-20.15,.57-.5,.7-.16c10.91-2.49,21.64-5.85,31.82-10.44,10.15-4.62,19.84-10.42,28.04-17.9,8.19-7.41,14.88-16.76,17.59-27.46,2.77-10.65,1.03-22.3-4.39-32.05-5.33-9.84-13.56-17.95-22.7-24.54-4.57-3.33-9.48-6.18-14.53-8.76-5.05-2.56-10.24-4.88-15.57-6.82-10.64-3.96-21.69-6.8-32.91-8.61-11.21-1.9-22.59-2.69-33.95-2.79,1.17,0,2.34,.01,3.51,.03,.91,.01,1.81,.04,2.72,.06,.15,0,.3,0,.45,.01,20.5,.59,40.96,3.99,60.38,10.76,10.74,3.79,21.1,8.75,30.6,15.13,9.43,6.41,18.06,14.42,23.89,24.49,5.92,9.96,8.18,22.31,5.52,33.81-.63,2.87-1.53,5.68-2.7,8.38-1.12,2.72-2.51,5.31-4.06,7.8-3.09,4.98-6.89,9.47-11.08,13.51-8.4,8.09-18.31,14.39-28.7,19.47-10.18,4.94-20.91,8.67-31.87,11.36l-21.91,20.05-22.53,20.4-11.26,10.2,6.15-13.91,7.99-18.08,5.88-13.13c-26.77,1.47-53.9-1.76-79.23-10.84-13.43-4.96-26.43-11.55-37.6-20.73-5.55-4.6-10.69-9.79-14.81-15.78-4.1-5.98-7.28-12.71-8.64-19.9-.44-1.77-.52-3.61-.77-5.41-.02-1.82-.21-3.64-.03-5.46,.1-3.64,.83-7.23,1.8-10.72Z"/>
  <polygon class="cls-3" points="295.24 31.21 300.09 39.15 258.87 54.77 295.24 31.21"/>
  <polygon class="cls-3" points="248.03 0 257.11 2.02 246.57 44.06 248.03 0"/>
  <polygon class="cls-3" points="286.74 .36 296.87 8.2 251.51 48.44 286.74 .36"/>
  <polygon class="cls-3" points="25.62 67.22 0 57.51 3.02 52.58 25.62 67.22"/>
  <polygon class="cls-3" points="32.35 33.19 33.26 60.57 26.71 34.44 32.35 33.19"/>
  <polygon class="cls-3" points="2 38.28 8.29 33.41 30.19 63.29 2 38.28"/>
</svg>