<?xml version="1.0" encoding="UTF-8"?>
<svg id="Layer_1" data-name="Layer 1" xmlns="http://www.w3.org/2000/svg" viewBox="0 0 2288.41 1367.16">
  <defs>
    <style>
      .cls-1 {
        fill: none;
        stroke-linecap: round;
      }

      .cls-1, .cls-2, .cls-3, .cls-4 {
        stroke: #000;
        stroke-miterlimit: 33.89;
        stroke-width: 6.06px;
      }

      .cls-2 {
        fill: #fff22d;
      }

      .cls-2, .cls-3, .cls-4 {
        fill-rule: evenodd;
      }

      .cls-3 {
        fill: #cf432a;
      }

      .cls-4 {
        fill: #217cad;
      }
    </style>
  </defs>
  <path class="cls-3" d="M1086.15,91.33h42.3c-9.5,30.3-40.9,52.2-78.2,52.2-44.7,0-81-31.5-81-70.2S1005.55,3.03,1050.25,3.03c35.6,.2,67.7,20.2,77.8,50.8h-42.9c-7.9-10.7-21.2-16.5-34.9-16.6-22.9,0-41.6,16.1-41.6,36s18.6,36,41.6,36c15.2,0,28.6-7.1,35.9-17.9Zm376.9,49.9h-34.5l-73.9-87.6v87.6h-36.1V3.73h35.8l72.6,86V3.73h36.1V141.23Zm172.2,0h-34.5l-73.9-87.6v87.6h-36.1V3.73h35.8l72.6,86V3.73h36.1V141.23Zm91.8-88.6l-38.9-48.9h-38.2l58.9,74.1v63.4h36.1v-62L1805.85,3.73h-39.5l-39.3,48.9h0Zm-777.3,88.6h-34.5l-73.9-87.6v87.6h-36.1V3.73h35.7l72.6,86V3.73h36.1l.1,137.5h0Zm287.7-52.6l-19.6-42.1-22.4,42.1h42Zm10.4,22.4l14,30.2h36.2L1234.05,3.73h-33.1l-73.3,137.5h39.5l16.1-30.2h64.6Zm-511.1-20.2V3.73h39V101.43c0,22.7-31.8,41.1-71,41.1s-71-18.4-71-41.1V3.73h39V90.83c0,10.2,14.3,18.5,32,18.5s32-8.3,32-18.5h0Z"/>
  <path class="cls-4" d="M2000.35,889.73l42.4-52.8,37,31.6,109.7-29.3,93.5-105.9L1835.15,187.13h-124.9l-25.5,40.5-47.6-40.5h-115l-27.3,43.3-32.4-43.3h-235.2l-28.8,45.7-32.1-45.7h-117.2l-88.6,140.8-133.3-140.7h-148.2l-58.8,110,6.8-110h-148.7l-75.4,138.1-143.6-138.1H94.35L3.55,397.23l319.5,359.5-96.2,606.3,231.4-61.8,111.4-185.8,5.3-86.5,176.7,194,235.2-62.8,36.7-52.3,31.3,34.2,149.8-40,30.9-44.1,27.2,28.6,73.6-19.6,41.2-53.7,24.1,36.3,139.5-37.2,35.8-45.8,24.5,29.6,229.1-61.1,35.7-44.3,23.6,28.5,110.5-29.5h0Z"/>
  <path class="cls-3" d="M439.65,3.73V141.23h126.6v-28.7h-94.4v-31.2h83.3v-28.6h-83.3v-20.4h94.4V3.63h-126.6v.1Zm-176.1,137.5h34.2v-59.2h68.9v59.3h34.2V3.83h-34.2V52.63h-68.9V3.83h-34.2V141.23h0ZM241.95,3.73v28.7h-49v108.9h-34.7V32.33h-48.9V3.63H241.95v.1Z"/>
  <path class="cls-2" d="M1311.15,950.13l-144.3,32.2L679.05,187.23h148.2l390.2,412.1-168.3-412.1h117.2l482.3,687.6-122.9,27.4-209.6-308.5,133.4,325.5-69.9,15.6-273.4-308.3,204.9,323.6Zm-412.7-322.2l-129.4,10.9-77.8-127.8,136.6-3.6,71.7,120.4-1.1,.1Z"/>
  <path class="cls-2" d="M569.65,1115.43l-225.3,50.2,83.6-610.6L94.35,187.23h165l193.5,186.1,25.5-186.1h148.7l-20.6,333.7,494.9,476-226.6,50.5-281.7-310.5-23.4,378.5ZM1522.05,187.23l464.1,612.3,105.7-23.6-231.7-300,318.4,280.6,104.4-23.3L1835.15,187.03h-124.9l179.5,215.1-252.6-215.1-115.1,.2h0Zm188.1,673.9l219.3-48.9-96.9-129.7-92.8,13.7-98.2-132.8,93-12.1-88.8-118.9-95.3,7.8-96.3-130.2,97.5-3.5-89.2-119.4h-235.2l482.9,674Z"/>
  <path class="cls-1" d="M899.55,627.83l-68.2,108.3m-62.3-97.3l-15.1,24m-62.7-151.8l-35.9,57m1027.9,52l51.2-68.7m-859.7,496.1l-123,175.6m415.1-240.8l-112,159.8m256.3-191.9l-106.5,152m175-167.3l-117,151.8m187-167.4l-113.3,147.8m189.5-164.8l-124.2,147.3m247.1-174.7l-107.6,137.5m169-151.2l-108.6,135.1m-500.2,.7l-114.5,163.3M1505.45,369.83l46.1-63.2m377.8,505.6l-98.8,122.8m155.5-135.5l-96.3,119.7m202.1-143.2l-91.5,113.8m178.2-133.2l-98.8,111.9m203.1-135.2l-93.5,105.9M344.35,1165.73l-117.5,197.3m96.2-606.4l104.9-201.6m1651.8,313.5l-37-31.6"/>
</svg>